<svg width="88" height="32" viewBox="0 0 88 32" fill="none" xmlns="http://www.w3.org/2000/svg">
                <g clip-path="url(#clip0_111_22208)">
                    <path
                        d="M77.2374 32.0863V30.3205H78.6791C78.9101 30.3205 79.1075 30.3093 79.2714 30.287C79.4428 30.2721 79.6216 30.2348 79.8079 30.1752C79.9942 30.1156 80.1543 30.0299 80.2885 29.9181C80.43 29.8064 80.5679 29.6499 80.702 29.4487C80.8361 29.255 80.9553 29.0203 81.0596 28.7446L81.4508 27.6606L76.9356 15.8809H79.2044L82.4566 24.8889L85.776 15.8809H88L82.7025 29.5829C82.3225 30.5366 81.8457 31.2295 81.272 31.6616C80.6983 32.0938 79.9793 32.3098 79.115 32.3098C78.4965 32.3098 77.8707 32.2353 77.2374 32.0863Z"
                        fill="white" />
                    <path
                        d="M63.9265 21.1894C63.9265 20.1314 64.1389 19.1777 64.5636 18.3283C64.9883 17.4789 65.6029 16.8046 66.4076 16.3054C67.2198 15.8062 68.1548 15.5566 69.2128 15.5566C70.1144 15.5566 70.9004 15.7504 71.571 16.1378C72.249 16.5252 72.7669 17.0729 73.1245 17.7807L73.281 15.8807H75.2033V26.6099C75.2033 28.3683 74.6966 29.769 73.6833 30.8121C72.6775 31.8552 71.3177 32.3768 69.604 32.3768C68.0841 32.3768 66.8323 31.9707 65.8488 31.1586C64.8653 30.3539 64.2693 29.2437 64.0606 27.8281H66.2176C66.3592 28.6551 66.7243 29.2959 67.3129 29.7504C67.9015 30.2049 68.6652 30.4321 69.604 30.4321C70.6546 30.4321 71.4965 30.1117 72.1298 29.471C72.7631 28.8377 73.0798 27.992 73.0798 26.934V24.6876C72.7073 25.3432 72.1745 25.8536 71.4816 26.2187C70.7887 26.5838 70.0026 26.7663 69.1234 26.7663C68.0878 26.7663 67.1713 26.5205 66.3741 26.0287C65.5769 25.537 64.9696 24.8701 64.5524 24.0282C64.1351 23.1862 63.9265 22.24 63.9265 21.1894ZM66.0723 21.1447C66.0723 22.2176 66.3815 23.1117 67 23.827C67.6258 24.5348 68.4529 24.8887 69.4811 24.8887C70.554 24.8887 71.4071 24.546 72.0404 23.8605C72.6737 23.1676 72.9904 22.2623 72.9904 21.1447C72.9904 20.042 72.6775 19.1479 72.0516 18.4624C71.4332 17.777 70.5838 17.4342 69.5034 17.4342C68.4529 17.4342 67.6184 17.7882 67 18.496C66.3815 19.1963 66.0723 20.0793 66.0723 21.1447Z"
                        fill="white" />
                    <path
                        d="M52.2474 25.6935C51.1521 24.5908 50.6045 23.1789 50.6045 21.4578C50.6045 19.7366 51.1521 18.3284 52.2474 17.2332C53.3501 16.1305 54.7471 15.5791 56.4384 15.5791C58.1149 15.5791 59.5007 16.1305 60.596 17.2332C61.6987 18.3284 62.2501 19.7366 62.2501 21.4578C62.2501 23.1789 61.6987 24.5908 60.596 25.6935C59.5007 26.7963 58.1149 27.3476 56.4384 27.3476C54.7471 27.3476 53.3501 26.7963 52.2474 25.6935ZM53.7897 18.6078C53.1117 19.338 52.7727 20.288 52.7727 21.4578C52.7727 22.6275 53.1117 23.5812 53.7897 24.3189C54.4677 25.0565 55.3506 25.4253 56.4384 25.4253C57.5188 25.4253 58.398 25.0565 59.076 24.3189C59.7615 23.5812 60.1042 22.6275 60.1042 21.4578C60.1042 20.288 59.7615 19.338 59.076 18.6078C58.398 17.8702 57.5188 17.5014 56.4384 17.5014C55.3506 17.5014 54.4677 17.8702 53.7897 18.6078Z"
                        fill="white" />
                    <path d="M48.1681 27.0681H46.0111V10.2256H48.1681V27.0681Z" fill="white" />
                    <path
                        d="M33.5832 25.6935C32.4879 24.5908 31.9403 23.1789 31.9403 21.4578C31.9403 19.7366 32.4879 18.3284 33.5832 17.2332C34.6859 16.1305 36.0829 15.5791 37.7742 15.5791C39.4507 15.5791 40.8365 16.1305 41.9318 17.2332C43.0345 18.3284 43.5859 19.7366 43.5859 21.4578C43.5859 23.1789 43.0345 24.5908 41.9318 25.6935C40.8365 26.7963 39.4507 27.3476 37.7742 27.3476C36.0829 27.3476 34.6859 26.7963 33.5832 25.6935ZM35.1255 18.6078C34.4475 19.338 34.1085 20.288 34.1085 21.4578C34.1085 22.6275 34.4475 23.5812 35.1255 24.3189C35.8035 25.0565 36.6864 25.4253 37.7742 25.4253C38.8546 25.4253 39.7338 25.0565 40.4118 24.3189C41.0973 23.5812 41.44 22.6275 41.44 21.4578C41.44 20.288 41.0973 19.338 40.4118 18.6078C39.7338 17.8702 38.8546 17.5014 37.7742 17.5014C36.6864 17.5014 35.8035 17.8702 35.1255 18.6078Z"
                        fill="white" />
                    <rect width="29.1305" height="29.1305" rx="4.3584" fill="url(#paint0_linear_111_22208)" />
                    <rect width="29.1305" height="29.1305" rx="4.3584" fill="url(#paint1_linear_111_22208)" />
                    <path
                        d="M5.76312 3.73312L6.07429 2.84668H6.5868V4.70847H6.24948V4.14104C6.24948 3.79239 6.25297 3.48471 6.25994 3.21799C6.22159 3.34873 6.17452 3.49168 6.11874 3.64683L5.7422 4.70847H5.45195L5.07279 3.64683C5.00655 3.45333 4.96035 3.31213 4.9342 3.22322C4.94118 3.48819 4.94466 3.79413 4.94466 4.14104V4.70847H4.60473V2.84668H5.11724L5.43887 3.75142C5.45979 3.81244 5.51296 3.98066 5.59838 4.25609C5.65416 4.06259 5.70908 3.88827 5.76312 3.73312Z"
                        fill="black" />
                    <path d="M2.87852 2.84668H4.42653V3.16308H3.83034V4.70847H3.47472V3.16308H2.87852V2.84668Z"
                        fill="black" />
                    <path fill-rule="evenodd" clip-rule="evenodd"
                        d="M8.95228 12.1357H8.04094C7.94574 12.1357 7.89814 12.1357 7.86178 12.1543C7.8298 12.1706 7.80379 12.1966 7.78749 12.2286C7.76897 12.2649 7.76897 12.3125 7.76897 12.4077V13.3191V25.6652C7.76897 25.7604 7.76897 25.808 7.78749 25.8444C7.80379 25.8763 7.8298 25.9024 7.86178 25.9186C7.89814 25.9372 7.94574 25.9372 8.04094 25.9372H9.86362C9.95882 25.9372 10.0064 25.9372 10.0428 25.9186C10.0748 25.9024 10.1008 25.8763 10.1171 25.8444C10.1356 25.808 10.1356 25.7604 10.1356 25.6652V19.9669C10.1356 19.8717 10.1356 19.8241 10.1541 19.7877C10.1704 19.7557 10.1964 19.7297 10.2284 19.7134C10.2648 19.6949 10.3124 19.6949 10.4076 19.6949H16.1819C16.2771 19.6949 16.3247 19.6949 16.361 19.6764C16.393 19.6601 16.419 19.6341 16.4353 19.6021C16.4538 19.5657 16.4538 19.5181 16.4538 19.4229V18.1399C16.4538 17.8979 16.4538 17.7769 16.4987 17.7281C16.5376 17.6859 16.5951 17.6661 16.6517 17.6755C16.7171 17.6864 16.7915 17.7818 16.9403 17.9727L19.6768 21.4825C19.7234 21.5423 19.7467 21.5722 19.7557 21.6052C19.7636 21.6343 19.7636 21.6651 19.7557 21.6942C19.7467 21.7272 19.7234 21.7571 19.6768 21.8169L16.8375 25.4586C16.7277 25.5995 16.6727 25.67 16.6732 25.7291C16.6736 25.7806 16.6973 25.8291 16.7376 25.8611C16.784 25.8978 16.8733 25.8978 17.052 25.8978H19.3632C19.412 25.8978 19.4363 25.8978 19.4588 25.8915C19.4787 25.886 19.4974 25.8768 19.514 25.8646C19.5327 25.8507 19.5477 25.8315 19.5777 25.793L21.0931 23.8493C21.1662 23.7556 21.2028 23.7087 21.2472 23.6918C21.2861 23.677 21.3291 23.677 21.3681 23.6918C21.4125 23.7087 21.449 23.7556 21.5221 23.8493L23.0376 25.793C23.0675 25.8315 23.0825 25.8507 23.1013 25.8646C23.1179 25.8768 23.1366 25.886 23.1565 25.8915C23.1789 25.8978 23.2033 25.8978 23.2521 25.8978H25.5632C25.7419 25.8978 25.8313 25.8978 25.8776 25.8611C25.918 25.8291 25.9417 25.7806 25.9421 25.7291C25.9425 25.67 25.8876 25.5995 25.7777 25.4586L22.9385 21.8169C22.8919 21.7571 22.8685 21.7272 22.8596 21.6942C22.8517 21.6651 22.8517 21.6343 22.8596 21.6052C22.8685 21.5722 22.8919 21.5423 22.9385 21.4825L25.8327 17.7704C25.9425 17.6294 25.9975 17.559 25.997 17.4998C25.9966 17.4484 25.9729 17.3998 25.9326 17.3679C25.8862 17.3311 25.7969 17.3311 25.6182 17.3311H23.307C23.2583 17.3311 23.2339 17.3311 23.2114 17.3374C23.1915 17.343 23.1728 17.3521 23.1562 17.3644C23.1375 17.3782 23.1225 17.3975 23.0925 17.4359L21.5221 19.4501C21.449 19.5438 21.4125 19.5907 21.3681 19.6076C21.3291 19.6224 21.2861 19.6224 21.2472 19.6076C21.2028 19.5907 21.1662 19.5438 21.0931 19.4501L19.5228 17.4359C19.4928 17.3975 19.4778 17.3782 19.459 17.3644C19.4424 17.3521 19.4237 17.343 19.4038 17.3374C19.3814 17.3311 19.357 17.3311 19.3083 17.3311H16.4553C16.4545 17.3311 16.4538 17.3305 16.4538 17.3297C16.4538 17.3289 16.4532 17.3283 16.4524 17.3283H10.4076C10.3124 17.3283 10.2648 17.3283 10.2284 17.3098C10.1964 17.2935 10.1704 17.2675 10.1541 17.2355C10.1356 17.1991 10.1356 17.1515 10.1356 17.0563V14.7743C10.1356 14.6791 10.1356 14.6315 10.1541 14.5952C10.1704 14.5632 10.1964 14.5372 10.2284 14.5209C10.2648 14.5024 10.3124 14.5024 10.4076 14.5024H18.0355C18.1307 14.5024 18.1783 14.5024 18.2147 14.4838C18.2467 14.4675 18.2727 14.4415 18.289 14.4096C18.3075 14.3732 18.3075 14.3256 18.3075 14.2304V12.4077C18.3075 12.3125 18.3075 12.2649 18.289 12.2286C18.2727 12.1966 18.2467 12.1706 18.2147 12.1543C18.1783 12.1357 18.1307 12.1357 18.0355 12.1357H8.95228Z"
                        fill="black" />
                </g>
                <defs>
                    <linearGradient id="paint0_linear_111_22208" x1="10.1803" y1="3.46385" x2="26.7291" y2="20.4855"
                        gradientUnits="userSpaceOnUse">
                        <stop stop-color="#3BE46A" />
                        <stop offset="1" stop-color="#E8FFCA" />
                    </linearGradient>
                    <linearGradient id="paint1_linear_111_22208" x1="10.1803" y1="3.46385" x2="26.7291" y2="20.4855"
                        gradientUnits="userSpaceOnUse">
                        <stop stop-color="#3BE46A" />
                        <stop offset="1" stop-color="#DEFFDF" />
                    </linearGradient>
                    <clipPath id="clip0_111_22208">
                        <rect width="88" height="32" fill="white" />
                    </clipPath>
                </defs>
            </svg>