<svg width="215" height="287" viewBox="0 0 215 287" fill="none" xmlns="http://www.w3.org/2000/svg">
<g clip-path="url(#clip0_1_52085)">
<path opacity="0.15" d="M215 122.299L214.807 122.299M214.807 122.299L170.581 122.299M214.807 122.299L214.807 78.164M214.807 122.299L214.807 166.433M170.581 122.299L126.356 122.299M170.581 122.299L170.581 78.164M170.581 122.299L170.581 166.433M126.356 122.299L82.1302 122.299M126.356 122.299L126.356 78.164M126.356 122.299L126.356 166.433M82.1302 122.299L37.9047 122.299M82.1302 122.299L82.1302 78.164M82.1302 122.299L82.1302 166.433M37.9047 122.299L-6.32085 122.299M37.9047 122.299L37.9047 78.164M37.9047 122.299L37.9047 166.433M-6.32085 122.299L-50.5464 122.299M-6.32085 122.299L-6.32085 78.164M-6.32085 122.299L-6.32085 166.433M-50.5464 122.299L-50.5464 78.164M-50.5464 122.299L-50.5464 166.433M215 78.164L214.807 78.164M214.807 78.164L170.581 78.164M214.807 78.164L214.807 34.0294M170.581 78.164L126.356 78.164M170.581 78.164L170.581 34.0294M126.356 78.164L82.1302 78.164M126.356 78.164L126.356 34.0294M82.1302 78.164L37.9047 78.164M82.1302 78.164L82.1302 34.0294M37.9047 78.164L-6.32085 78.164M37.9047 78.164L37.9047 34.0294M-6.32085 78.164L-50.5464 78.164M-6.32085 78.164L-6.32085 34.0294M-50.5464 78.164L-50.5464 34.0294M215 254.703L214.807 254.703M214.807 254.703L214.807 210.568M214.807 254.703L214.807 268.193M215 34.0294L214.807 34.0294M214.807 34.0294L170.581 34.0294M214.807 34.0294L214.807 -10.1053M170.581 34.0294L126.356 34.0294M170.581 34.0294L170.581 -10.1053M126.356 34.0294L82.1302 34.0294M126.356 34.0294L126.356 -10.1053M82.1302 34.0294L37.9047 34.0294M82.1302 34.0294L82.1302 -10.1053M37.9047 34.0294L-6.32085 34.0294M37.9047 34.0294L37.9047 -10.1053M-6.32085 34.0294L-50.5464 34.0294M-6.32085 34.0294L-6.32084 -10.1053M-50.5464 34.0294L-50.5464 -10.1053M215 210.568L214.807 210.568M214.807 210.568L170.581 210.568M214.807 210.568L214.807 166.433M170.581 210.568L126.356 210.568M170.581 210.568L170.581 166.433M170.581 210.568L170.581 254.703L170.581 268.193M126.356 210.568L82.1302 210.568M126.356 210.568L126.356 166.433M126.356 210.568L126.356 254.703L126.356 268.193M82.1302 210.568L37.9047 210.568M82.1302 210.568L82.1302 166.433M82.1302 210.568L82.1302 254.703L82.1302 268.193M37.9047 210.568L-6.32085 210.568M37.9047 210.568L37.9047 166.433M37.9047 210.568L37.9047 254.702L37.9047 268.193M-6.32085 210.568L-50.5464 210.568M-6.32085 210.568L-6.32085 166.433M-6.32085 210.568L-6.32086 254.702L-6.32086 268.193M-50.5464 210.568L-50.5464 166.433M-50.5464 210.568L-50.5464 254.702L-50.5464 268.193M215 -10.1053L214.807 -10.1053M214.807 -10.1053L170.581 -10.1053M214.807 -10.1053L214.807 -23.5962M170.581 -10.1053L126.356 -10.1053M170.581 -10.1053L170.581 -23.5962M126.356 -10.1053L82.1302 -10.1053M126.356 -10.1053L126.356 -23.5962M82.1302 -10.1053L37.9047 -10.1053M82.1302 -10.1053L82.1302 -23.5962M37.9047 -10.1053L-6.32084 -10.1053M37.9047 -10.1053L37.9047 -23.5962M-6.32084 -10.1053L-50.5464 -10.1053M-6.32084 -10.1053L-6.32084 -23.5962M-50.5464 -10.1053L-50.5464 -23.5962M215 166.433L214.807 166.433M214.807 166.433L170.581 166.433M170.581 166.433L126.356 166.433M126.356 166.433L82.1302 166.433M82.1302 166.433L37.9047 166.433M37.9047 166.433L-6.32085 166.433M-6.32085 166.433L-50.5464 166.433M215 387.903L214.807 387.903M214.807 387.903L170.581 387.903M214.807 387.903L214.807 343.768M214.807 387.903L214.807 432.037M170.581 387.903L126.356 387.903M170.581 387.903L170.581 343.768M170.581 387.903L170.581 432.037M126.356 387.903L82.1302 387.903M126.356 387.903L126.356 343.768M126.356 387.903L126.356 432.037M82.1302 387.903L37.9047 387.903M82.1302 387.903L82.1302 343.768M82.1302 387.903L82.1302 432.037M37.9047 387.903L-6.32086 387.903M37.9047 387.903L37.9047 343.768M37.9047 387.903L37.9047 432.037M-6.32086 387.903L-50.5464 387.903M-6.32086 387.903L-6.32086 343.768M-6.32086 387.903L-6.32086 432.037M-50.5464 387.903L-50.5464 343.768M-50.5464 387.903L-50.5464 432.037M215 343.768L214.807 343.768M214.807 343.768L170.581 343.768M214.807 343.768L214.807 299.634M170.581 343.768L126.356 343.768M170.581 343.768L170.581 299.634M126.356 343.768L82.1302 343.768M126.356 343.768L126.356 299.634M82.1302 343.768L37.9047 343.768M82.1302 343.768L82.1302 299.634M37.9047 343.768L-6.32086 343.768M37.9047 343.768L37.9047 299.634M-6.32086 343.768L-50.5464 343.768M-6.32086 343.768L-6.32086 299.634M-50.5464 343.768L-50.5464 299.634M215 299.634L214.807 299.634M214.807 299.634L170.581 299.634M214.807 299.634L214.807 255.499M170.581 299.634L126.356 299.634M170.581 299.634L170.581 255.499M126.356 299.634L82.1302 299.634M126.356 299.634L126.356 255.499M82.1302 299.634L37.9047 299.634M82.1302 299.634L82.1302 255.499M37.9047 299.634L-6.32086 299.634M37.9047 299.634L37.9047 255.499M-6.32086 299.634L-50.5464 299.634M-6.32086 299.634L-6.32086 255.499M-50.5464 299.634L-50.5464 255.499M215 476.172L214.807 476.172M214.807 476.172L170.581 476.172M214.807 476.172L214.807 432.037M170.581 476.172L126.356 476.172M170.581 476.172L170.581 432.037M126.356 476.172L82.1302 476.172M126.356 476.172L126.356 432.037M82.1302 476.172L37.9047 476.172M82.1302 476.172L82.1302 432.037M37.9047 476.172L-6.32087 476.172M37.9047 476.172L37.9047 432.037M-6.32087 476.172L-50.5464 476.172L-50.5464 432.037M-6.32087 476.172L-6.32086 432.037M215 255.499L214.807 255.499M214.807 255.499L170.581 255.499M214.807 255.499L214.807 242.008M170.581 255.499L126.356 255.499M170.581 255.499L170.581 242.008M126.356 255.499L82.1302 255.499M126.356 255.499L126.356 242.008M82.1302 255.499L37.9047 255.499M82.1302 255.499L82.1302 242.008M37.9047 255.499L-6.32086 255.499M37.9047 255.499L37.9047 242.008M-6.32086 255.499L-50.5464 255.499M-6.32086 255.499L-6.32086 242.008M-50.5464 255.499L-50.5464 242.008M215 432.037L214.807 432.037M214.807 432.037L170.581 432.037M170.581 432.037L126.356 432.037M126.356 432.037L82.1302 432.037M82.1302 432.037L37.9047 432.037M37.9047 432.037L-6.32086 432.037M-6.32086 432.037L-50.5464 432.037" stroke="url(#paint0_radial_1_52085)" stroke-width="0.711921"/>
<rect opacity="0.3" x="169.437" y="78.2085" width="44.851" height="44.1391" transform="rotate(90 169.437 78.2085)" fill="url(#paint1_linear_1_52085)"/>
<rect opacity="0.3" x="169.437" y="211.337" width="44.1391" height="44.1391" transform="rotate(90 169.437 211.337)" fill="url(#paint2_linear_1_52085)"/>
<g filter="url(#filter0_d_1_52085)">
<path d="M65.4967 254.764L81.7855 254.764L81.7855 167.198L130.281 167.198" stroke="url(#paint3_linear_1_52085)" stroke-width="0.711921" stroke-linecap="round" shape-rendering="crispEdges"/>
</g>
<rect opacity="0.3" x="81.8708" y="210.625" width="44.851" height="44.1391" transform="rotate(90 81.8708 210.625)" fill="url(#paint4_linear_1_52085)"/>
</g>
<defs>
<filter id="filter0_d_1_52085" x="62.2932" y="163.994" width="71.1919" height="93.9737" filterUnits="userSpaceOnUse" color-interpolation-filters="sRGB">
<feFlood flood-opacity="0" result="BackgroundImageFix"/>
<feColorMatrix in="SourceAlpha" type="matrix" values="0 0 0 0 0 0 0 0 0 0 0 0 0 0 0 0 0 0 127 0" result="hardAlpha"/>
<feOffset/>
<feGaussianBlur stdDeviation="1.42384"/>
<feComposite in2="hardAlpha" operator="out"/>
<feColorMatrix type="matrix" values="0 0 0 0 1 0 0 0 0 1 0 0 0 0 1 0 0 0 0.19 0"/>
<feBlend mode="normal" in2="BackgroundImageFix" result="effect1_dropShadow_1_52085"/>
<feBlend mode="normal" in="SourceGraphic" in2="effect1_dropShadow_1_52085" result="shape"/>
</filter>
<radialGradient id="paint0_radial_1_52085" cx="0" cy="0" r="1" gradientUnits="userSpaceOnUse" gradientTransform="translate(113.907 173.962) rotate(69.9329) scale(165.987 98.2184)">
<stop stop-color="#F5F5F5"/>
<stop offset="1" stop-color="#F5F5F5" stop-opacity="0"/>
</radialGradient>
<linearGradient id="paint1_linear_1_52085" x1="191.863" y1="78.2085" x2="191.863" y2="122.348" gradientUnits="userSpaceOnUse">
<stop offset="0.305" stop-color="white" stop-opacity="0"/>
<stop offset="1" stop-color="#1CE4BF" stop-opacity="0.1"/>
</linearGradient>
<linearGradient id="paint2_linear_1_52085" x1="191.507" y1="211.337" x2="191.507" y2="255.476" gradientUnits="userSpaceOnUse">
<stop offset="0.305" stop-color="white" stop-opacity="0"/>
<stop offset="1" stop-color="#1CE4BF" stop-opacity="0.1"/>
</linearGradient>
<linearGradient id="paint3_linear_1_52085" x1="130.282" y1="169.344" x2="130.083" y2="243.603" gradientUnits="userSpaceOnUse">
<stop stop-color="#58E877"/>
<stop offset="1" stop-color="#58E877" stop-opacity="0.1"/>
</linearGradient>
<linearGradient id="paint4_linear_1_52085" x1="104.296" y1="210.625" x2="104.296" y2="254.765" gradientUnits="userSpaceOnUse">
<stop offset="0.305" stop-color="white" stop-opacity="0"/>
<stop offset="1" stop-color="#1CE4BF" stop-opacity="0.1"/>
</linearGradient>
<clipPath id="clip0_1_52085">
<rect width="476" height="215" fill="white" transform="translate(215) rotate(90)"/>
</clipPath>
</defs>
</svg>
